HIERARCHY
ROOT Hips
{
  OFFSET 32.3073 99.364 17.4096
  CHANNELS 6 Xposition Yposition Zposition Zrotation Xrotation Yrotation
  JOINT ToSpine
  {
    OFFSET -0.0105055 1.38907 -7.13956
    CHANNELS 3 Zrotation Xrotation Yrotation
    JOINT Spine
    {
      OFFSET 0.0105055 10 1
      CHANNELS 3 Zrotation Xrotation Yrotation
      JOINT Spine1
      {
        OFFSET 0 12 1.60637
        CHANNELS 3 Zrotation Xrotation Yrotation
        JOINT Neck
        {
          OFFSET 0 27 2.26658
          CHANNELS 3 Zrotation Xrotation Yrotation
          JOINT Head
          {
            OFFSET 0 9 2.12705
            CHANNELS 3 Zrotation Xrotation Yrotation
            End Site
            {
              OFFSET 0 11 2
            }
          }
        }
        JOINT LeftShoulder
        {
          OFFSET 8 19.6109 2.86452
          CHANNELS 3 Zrotation Xrotation Yrotation
          JOINT LeftArm
          {
            OFFSET 12 1 0.681055
            CHANNELS 3 Zrotation Xrotation Yrotation
            JOINT LeftForeArm
            {
              OFFSET 19 0 -1.52608
              CHANNELS 3 Zrotation Xrotation Yrotation
              JOINT LeftHand
              {
                OFFSET 23 0 0
                CHANNELS 3 Zrotation Xrotation Yrotation
                End Site
                {
                  OFFSET 10 0 0
                }
              }
            }
          }
        }
        JOINT RightShoulder
        {
          OFFSET -8 19.6109 2.86452
          CHANNELS 3 Zrotation Xrotation Yrotation
          JOINT RightArm
          {
            OFFSET -12 1 0.681055
            CHANNELS 3 Zrotation Xrotation Yrotation
            JOINT RightForeArm
            {
              OFFSET -19 0 -1.52608
              CHANNELS 3 Zrotation Xrotation Yrotation
              JOINT RightHand
              {
                OFFSET -23 0 0
                CHANNELS 3 Zrotation Xrotation Yrotation
                End Site
                {
                  OFFSET -10 0 0
                }
              }
            }
          }
        }
      }
    }
  }
  JOINT LeftUpLeg
  {
    OFFSET 9 -7.17245 0
    CHANNELS 3 Zrotation Xrotation Yrotation
    JOINT LeftLeg
    {
      OFFSET 0 -44.1113 0
      CHANNELS 3 Zrotation Xrotation Yrotation
      JOINT LeftFoot
      {
        OFFSET 0 -36.1829 0
        CHANNELS 3 Zrotation Xrotation Yrotation
        JOINT LeftToeBase
        {
          OFFSET 0 -4.84184 13
          CHANNELS 3 Zrotation Xrotation Yrotation
          End Site
          {
            OFFSET 0 1 6
          }
        }
      }
    }
  }
  JOINT RightUpLeg
  {
    OFFSET -9 -7.17245 0
    CHANNELS 3 Zrotation Xrotation Yrotation
    JOINT RightLeg
    {
      OFFSET 0 -44.0551 0
      CHANNELS 3 Zrotation Xrotation Yrotation
      JOINT RightFoot
      {
        OFFSET 0 -36.1469 0
        CHANNELS 3 Zrotation Xrotation Yrotation
        JOINT RightToeBase
        {
          OFFSET 0 -4.92256 13
          CHANNELS 3 Zrotation Xrotation Yrotation
          End Site
          {
            OFFSET 0 1 6
          }
        }
      }
    }
  }
}
MOTION
Frames:	15
Frame Time:	0.0333333
33.5525 99.0552 22.3666 -3.30438 -4.47722 -12.1808 0 0 0 2.07602 -1.62988 1.32726 -0.365223 10.5021 1.10548 20.912 9.30937 -5.01044 -0.12099 -4.38931 2.91639 -27.5607 3.07113 -5.59897 -42.1164 28.4901 18.9953 20.9781 3.9114 -79.9122 -16.1857 0.366789 -2.56966 24.0953 4.94562 12.701 49.8439 14.7554 -23.3259 -19.8523 6.68082 72.1421 7.17111 0.135798 2.15817 3.99063 7.13554 9.7547 -1.1642 15.3233 -1.05641 4.0699 -17.5577 0.628853 -0.311266 1.44252 0.867277 -1.56326 6.41216 -7.34624 0.524439 7.77934 10.2726 -13.3442 -1.8836 -0.217013 4.52609 -16.995 -2.59568 
34.089 99.1257 22.1452 -2.69526 -3.50042 -11.7823 0 0 0 3.09859 -2.4591 1.35386 -1.51912 10.521 1.33808 20.416 9.72276 -4.22525 -1.11344 -4.85448 3.77518 -26.5521 2.93678 -5.46307 -41.3749 28.4593 23.023 23.6679 1.35019 -86.9227 -17.8743 0.396207 -2.50381 23.1425 4.58607 11.9852 50.2399 16.0264 -25.7549 -22.9906 5.07195 78.2313 8.65213 0.176748 2.33845 3.2099 6.13943 9.39377 -1.26371 14.2673 -0.816781 4.31918 -16.8344 0.639472 -0.242311 2.03886 0.433566 -2.28487 4.74015 -7.3047 0.264209 8.53138 9.65107 -11.9387 -2.90575 -0.305109 4.14057 -15.4359 -1.61496 
34.371 99.1177 22.1449 -2.30622 -4.09151 -10.2547 0 0 0 2.52458 -1.84146 1.00902 -0.638076 10.3895 0.753496 18.6025 10.1104 -3.41717 -1.00014 -5.06276 3.92719 -26.0963 2.89739 -5.46176 -40.4214 29.0343 27.172 28.7012 -1.88684 -93.4415 -20.3256 0.54327 -3.04042 21.4009 4.12336 11.2639 51.2707 17.126 -28.4411 -26.0553 2.98492 83.9214 9.62586 0.199464 2.37236 2.85881 7.06236 9.41341 -1.5516 12.9721 -2.34563 4.41615 -16.3788 0.6364 -0.238133 2.71254 0.242276 -2.81499 5.55186 -7.7815 0.380941 8.39527 9.0796 -12.2014 -2.67541 -0.285136 4.31883 -16.2309 -2.95893 
34.855 99.1571 22.1454 -1.49494 -4.5182 -9.27267 0 0 0 2.74768 -1.31991 0.722288 -1.58261 10.0871 0.736458 18.3826 10.6435 -3.0329 -1.86564 -5.16374 4.46816 -24.4952 2.75336 -5.44375 -40.4427 30.2489 31.3601 32.3088 -5.71302 -98.9457 -21.3497 0.641925 -3.39933 20.7066 3.95607 11.0023 51.968 18.3731 -31.0028 -29.1583 0.684443 88.7736 11.8888 0.259184 2.51162 1.62262 8.08077 8.85564 -1.59925 10.933 -2.58579 4.28182 -15.2784 0.573818 -0.180772 3.08292 -0.0639984 -4.08652 5.53011 -8.59897 0.326854 9.37268 8.68887 -11.6613 -3.45392 -0.353908 4.24287 -15.8528 -1.96009 
35.268 99.151 21.9498 -1.11327 -3.99669 -8.90393 0 0 0 3.21931 -1.79884 0.860552 -1.90007 10.1965 0.894203 17.0829 10.564 -2.42988 -2.09177 -5.14837 4.59667 -23.4256 2.70994 -5.60295 -40.7448 31.7629 34.7937 36.1627 -9.32009 -102.494 -22.3087 1.05944 -5.35895 19.7159 3.73146 10.6649 52.5971 19.8122 -33.1213 -32.2443 -1.64936 92.6121 10.3629 0.290235 3.18517 1.01718 7.57354 8.52136 -1.61129 10.1399 -2.4448 4.72737 -14.4112 0.598302 -0.0544848 2.53847 -0.420056 -4.54842 4.45559 -8.45981 0.102447 10.1007 8.50143 -11.226 -3.74855 -0.363932 4.19251 -15.6915 -2.64058 
35.5917 99.1477 21.7505 -0.869675 -3.79039 -7.76922 0 0 0 3.41689 -1.73843 0.610428 -1.9943 9.99444 0.622287 15.8492 10.2242 -1.76624 -1.87847 -4.65763 4.70235 -22.0382 2.59666 -5.62483 -42.2421 33.4071 38.3584 38.9297 -12.4066 -104.895 -23.0225 1.36446 -6.69671 18.8309 3.567 10.4832 54.2112 21.5007 -35.1266 -34.0918 -3.44619 95.0744 10.8017 0.328944 3.52508 0.899718 7.13018 8.51157 -1.80031 9.9529 -3.54071 4.79273 -14.176 0.59656 -0.0542146 3.10359 -0.548669 -4.89035 3.91339 -8.53168 -0.187043 10.8618 7.49074 -8.95923 -5.01348 -0.395302 3.74421 -13.9263 -1.7413 
35.9161 99.1081 21.4834 -0.350318 -3.61034 -6.94102 0 0 0 3.28853 -1.89602 0.580926 -2.02607 10.1741 0.59484 15.021 10.3822 -1.58333 -2.59497 -5.29456 4.70915 -20.9969 2.51545 -5.65754 -43.4851 34.944 40.8478 41.3914 -14.9074 -106.272 -21.5195 1.3109 -6.89625 18.5266 3.60118 10.7709 55.4981 22.7792 -36.9098 -35.4051 -4.76245 96.6612 9.055 0.385381 4.8392 0.369103 6.66887 8.23182 -1.9779 9.73925 -4.03653 5.06195 -13.7854 0.610796 -0.0855908 3.22852 -0.458746 -5.50603 2.95442 -8.58377 -0.412975 12.2455 6.84126 -8.83691 -5.48565 -0.424338 3.79518 -14.1207 -2.04911 
36.3585 99.0404 21.3165 0.588165 -3.59298 -5.69029 0 0 0 2.73041 -2.38355 0.380544 -1.95504 10.854 0.398764 13.7603 9.91693 -1.22589 -2.40702 -5.52235 4.48815 -20.6357 2.56373 -5.9472 -44.5546 36.0319 42.892 43.3261 -16.8076 -107.044 -20.621 1.45827 -7.99972 18.4552 3.67047 11.0821 56.4176 23.7504 -38.2392 -37.973 -6.34933 98.063 9.43795 0.428712 5.18788 -0.912039 6.54903 7.37528 -1.84104 9.01838 -4.35714 5.8403 -12.8905 0.660903 -0.0237358 2.68629 -0.571361 -6.91825 2.10331 -9.40256 -0.253431 14.1203 6.59053 -8.8069 -6.19055 -0.47716 3.89837 -14.5331 -2.67709 
36.5756 98.9326 21.2537 0.969594 -3.68587 -4.59003 0 0 0 2.37099 -2.77459 0.290951 -1.48979 11.4865 0.136573 11.8713 9.59986 -0.652249 -1.9232 -5.58653 4.21789 -21.3031 2.5984 -5.85893 -44.4424 37.0451 43.7743 44.6664 -17.9916 -107.354 -19.9018 1.46868 -8.34966 17.7609 3.60239 11.1865 58.3159 24.6187 -38.9689 -40.0346 -7.32996 98.6336 9.26531 0.515405 6.35575 -1.03712 6.47683 7.61479 -2.25436 9.14868 -5.67848 5.63795 -13.0125 0.643594 -0.016236 3.19958 -0.713339 -7.57745 1.87976 -9.85048 -0.0317162 15.212 6.17352 -8.68102 -6.38316 -0.485052 4.15348 -15.5904 -3.19017 
36.9628 98.8517 20.913 2.08826 -3.16839 -3.56923 0 0 0 2.42115 -2.60001 0.0793594 -2.93004 10.4589 0.333308 11.9136 9.723 -0.76514 -3.0627 -5.66665 4.3328 -21.1128 2.58442 -5.86945 -45.2527 37.4245 44.9848 46.9354 -19.288 -107.157 -18.2834 1.42264 -8.83513 18.1362 3.68947 11.3302 59.9634 25.3607 -39.3474 -42.9279 -7.73435 98.2312 8.5141 0.523776 7.01268 -2.35039 5.74494 6.78237 -2.2937 8.58492 -5.86403 5.6335 -12.4418 0.614623 -0.0337084 3.70344 -0.757475 -9.22691 0.145475 -10.7924 0.0845079 17.6035 6.14939 -8.95734 -6.82749 -0.535483 4.37182 -16.4703 -3.32502 
37.3433 98.698 20.7573 2.37255 -3.24888 -2.86086 0 0 0 3.78304 -2.06578 0.135971 -4.69786 9.6325 0.729667 10.4903 9.77046 -0.48666 -2.51486 -5.65175 3.97506 -21.863 2.60717 -5.71577 -44.4289 37.8913 44.4916 48.6275 -19.5849 -106.448 -15.7675 1.47541 -10.6279 18.2611 3.70453 11.3207 61.4129 25.9751 -39.4542 -43.3351 -7.25777 97.625 7.04466 0.508403 8.37245 -2.71252 5.52037 6.80394 -2.46953 8.95411 -6.45882 5.95796 -12.5341 0.654712 -0.00387163 3.69071 -0.865803 -9.85754 -0.428975 -11.1835 0.14098 19.1567 6.32957 -9.27459 -7.13001 -0.578383 4.45609 -16.971 -4.63242 
37.6778 98.6171 20.7022 2.51738 -3.08372 -1.50352 0 0 0 4.49945 -2.60767 -0.123725 -5.41007 9.73756 0.561648 9.28739 9.75549 -0.305662 -2.80601 -5.65284 3.74615 -22.2579 2.6084 -5.60036 -43.8492 37.9111 42.9867 48.7086 -18.77 -105.78 -11.2559 1.05815 -10.6856 18.2952 3.80034 11.6809 62.523 26.4727 -39.1847 -44.114 -6.59842 96.7578 5.24744 0.44288 9.72185 -2.71699 5.22771 6.93349 -2.82113 9.02304 -8.06028 6.44427 -12.3097 0.695672 -0.109291 3.59023 -0.451266 -10.3152 -0.749731 -11.8084 0.158427 20.0669 4.9237 -9.24729 -7.69771 -0.622999 4.49367 -16.8851 -2.60933 
37.9811 98.4674 20.67 2.8078 -3.26293 -0.229554 0 0 0 5.1109 -2.77368 -0.203025 -6.34308 9.84156 0.626238 8.25353 9.33182 -0.138021 -3.2438 -5.58737 3.5667 -23.1737 2.71045 -5.67827 -42.5996 38.4093 41.2938 48.2454 -17.708 -105.191 -11.0222 1.00843 -10.3872 18.3911 3.66206 11.0855 62.4692 27.2666 -37.8749 -50.4515 -7.57504 96.2112 7.43341 0.544679 8.32679 -2.83564 5.10887 7.15798 -3.20963 9.65267 -9.33202 7.06409 -12.5357 0.77739 0.027724 3.60547 -0.965465 -10.8925 -0.532416 -12.8611 0.279632 20.7269 4.81487 -10.2766 -7.50699 -0.676334 4.86255 -18.4368 -3.18346 
38.2846 98.3447 20.594 2.98405 -3.49711 0.749335 0 0 0 5.82876 -2.75749 -0.128965 -7.55082 9.95272 0.927396 8.42674 8.63644 -0.376072 -4.2013 -5.06772 3.52618 -23.5462 2.77712 -5.79278 -41.1871 39.0409 39.1442 49.2338 -16.865 -104.043 -11.6944 1.20684 -11.7223 18.8736 3.53676 10.3415 62.6986 28.93 -36.7709 -51.6114 -6.03867 94.7633 4.64024 0.337378 8.33793 -2.88062 4.93746 7.39044 -3.51628 10.5291 -10.4646 7.64107 -12.7903 0.857156 0.0396985 3.73304 -1.03682 -11.3175 -0.396887 -12.9543 0.164245 21.5235 4.26906 -8.31359 -8.29744 -0.600704 4.6987 -17.7618 -3.14439 
38.5191 98.2761 20.2639 3.94708 -3.10015 1.73547 0 0 0 4.68197 -3.22902 -0.233937 -7.27981 9.9887 0.826826 7.18258 8.34703 0.00289134 -3.86391 -5.15392 3.36246 -24.3457 2.80487 -5.65194 -39.4919 39.7922 36.9901 53.3893 -17.1543 -102.36 -9.56902 0.918289 -10.9772 19.0134 3.68683 10.8521 62.6184 29.9791 -35.394 -52.8571 -4.62826 93.4968 2.00099 0.149571 8.20213 -3.92282 4.39622 6.84359 -3.73274 10.1954 -10.9 7.96917 -12.0359 0.842019 0.0116238 3.40663 -0.864422 -12.7074 -1.42507 -13.4932 0.0465604 23.209 3.86083 -6.60013 -9.79719 -0.568534 4.28337 -16.061 -2.54574 
